<svg width="365" height="48" viewBox="0 0 365 48" fill="none" xmlns="http://www.w3.org/2000/svg">
<path d="M14.8311 10.9122C8.16778 16.5177 5.08583 26.0531 9.54431 33.9008C15.9153 44.8741 30.7099 46.5009 38.8412 36.4659C47.0942 26.2907 43.6468 13.7393 32.7077 7.31737C30.2714 5.94037 27.5305 4.9716 24.7348 5.27015C23.4131 5.40419 21.8173 5.82461 21.525 7.20161C21.1595 9.2671 23.6811 10.8878 25.3256 11.9906C29.1202 14.3059 33.7249 14.574 38.1468 14.1902C39.6573 14.05 41.1618 13.8246 42.654 13.52C44.2072 13.2702 45.5837 12.5999 47.2221 12.801C47.5693 12.8376 47.7338 13.2945 47.484 13.5382C46.3024 14.7203 44.597 14.9091 43.0682 15.3478C41.5272 15.7256 39.9619 16.0241 38.3783 16.2374C31.9768 17.1574 24.4912 16.2374 19.984 11.0036C18.175 8.96246 18.1445 5.62963 20.3799 3.80785C22.268 2.3029 24.7165 2.05918 27.0006 2.18104C32.9209 2.75987 38.1833 6.32422 41.9109 10.8025C50.1884 20.7401 48.0261 34.5527 37.3611 41.7606C33.9198 44.0638 29.8328 45.4286 25.6911 45.5139C18.2237 45.6601 10.5067 42.2359 6.41363 35.7469C0.706528 26.7964 4.73865 14.3608 13.8018 9.43161C14.7641 8.90762 15.6412 10.2115 14.8311 10.9122Z" fill="#E50056"/>
<path d="M21.397 23.9388C21.397 25.005 20.5321 25.8702 19.4663 25.8702C18.4004 25.8702 17.5355 25.005 17.5355 23.9388C17.5355 22.8725 18.4004 22.0073 19.4663 22.0073C20.5321 22.0073 21.397 22.8725 21.397 23.9388Z" fill="#E50056"/>
<path d="M33.2011 23.9388C33.2011 25.005 32.3362 25.8702 31.2703 25.8702C30.2044 25.8702 29.3395 25.005 29.3395 23.9388C29.3395 22.8725 30.2044 22.0073 31.2703 22.0073C32.3362 22.0073 33.2011 22.8725 33.2011 23.9388Z" fill="#E50056"/>
<path d="M25.3805 35.6617C21.6529 35.6617 18.2176 33.8095 16.4148 30.8361C16.092 30.306 16.2625 29.6114 16.7924 29.2885C17.3223 28.9656 18.0167 29.1362 18.3395 29.6663C19.7343 31.9755 22.4325 33.4134 25.3805 33.4134C28.3284 33.4134 31.0206 31.9816 32.4214 29.6663C32.7443 29.1362 33.4325 28.9656 33.9685 29.2885C34.4984 29.6114 34.669 30.2999 34.3461 30.8361C32.5433 33.8155 29.108 35.6617 25.3805 35.6617Z" fill="#E50056"/>
<g fill="#e50056"><g transform="translate(60, -5)">
<path d="M24.75 23.83Q24.38 22.53 23.70 21.53Q23.03 20.53 22.06 19.82Q21.09 19.12 19.86 18.75Q18.63 18.38 17.13 18.38Q14.35 18.38 12.24 19.76Q10.14 21.15 8.97 23.78Q7.79 26.42 7.79 30.22Q7.79 34.02 8.95 36.68Q10.10 39.35 12.22 40.74Q14.33 42.13 17.21 42.13Q19.82 42.13 21.67 41.20Q23.53 40.27 24.51 38.57Q25.50 36.86 25.50 34.53L27.06 34.77L17.68 34.77L17.68 28.98L32.90 28.98L32.90 33.56Q32.90 38.35 30.88 41.79Q28.85 45.22 25.30 47.08Q21.75 48.93 17.17 48.93Q12.06 48.93 8.19 46.67Q4.31 44.41 2.16 40.23Q0 36.04 0 30.29Q0 25.87 1.29 22.40Q2.57 18.93 4.90 16.51Q7.23 14.10 10.32 12.84Q13.41 11.58 17.01 11.58Q20.10 11.58 22.76 12.47Q25.43 13.37 27.49 15.00Q29.56 16.64 30.88 18.88Q32.19 21.13 32.56 23.83L24.75 23.83ZM50.96 48.97Q46.75 48.97 43.72 47.26Q40.70 45.54 39.06 42.39Q37.43 39.24 37.43 34.93Q37.43 30.72 39.06 27.54Q40.70 24.36 43.67 22.59Q46.64 20.81 50.66 20.81Q53.36 20.81 55.69 21.67Q58.03 22.53 59.77 24.25Q61.52 25.98 62.50 28.58Q63.48 31.18 63.48 34.66L63.48 36.74L40.45 36.74L40.45 32.05L56.36 32.05Q56.36 30.42 55.65 29.15Q54.94 27.89 53.68 27.18Q52.43 26.46 50.78 26.46Q49.06 26.46 47.74 27.25Q46.41 28.04 45.67 29.36Q44.92 30.68 44.90 32.30L44.90 36.75Q44.90 38.78 45.66 40.25Q46.41 41.73 47.80 42.52Q49.18 43.32 51.08 43.32Q52.34 43.32 53.39 42.97Q54.44 42.61 55.18 41.90Q55.93 41.19 56.32 40.16L63.32 40.63Q62.78 43.15 61.14 45.02Q59.50 46.89 56.92 47.93Q54.33 48.97 50.96 48.97ZM76.19 48.95Q73.58 48.95 71.54 48.04Q69.50 47.12 68.31 45.32Q67.13 43.52 67.13 40.82Q67.13 38.55 67.97 37.00Q68.80 35.46 70.24 34.52Q71.68 33.58 73.52 33.10Q75.36 32.62 77.38 32.42Q79.76 32.17 81.21 31.95Q82.67 31.73 83.33 31.29Q83.98 30.84 83.98 29.97L83.98 29.87Q83.98 28.18 82.93 27.25Q81.87 26.33 79.94 26.33Q77.89 26.33 76.69 27.23Q75.48 28.12 75.09 29.47L68.09 28.91Q68.63 26.42 70.19 24.60Q71.75 22.78 74.23 21.80Q76.70 20.81 79.97 20.81Q82.24 20.81 84.33 21.34Q86.42 21.87 88.04 22.99Q89.67 24.11 90.61 25.86Q91.55 27.61 91.55 30.04L91.55 48.44L84.38 48.44L84.38 44.66L84.16 44.66Q83.50 45.93 82.40 46.90Q81.30 47.87 79.76 48.41Q78.21 48.95 76.19 48.95M78.36 43.73Q80.02 43.73 81.30 43.07Q82.58 42.40 83.31 41.26Q84.04 40.13 84.04 38.69L84.04 35.80Q83.68 36.03 83.07 36.21Q82.46 36.40 81.69 36.55Q80.93 36.70 80.17 36.82Q79.40 36.93 78.78 37.02Q77.45 37.22 76.46 37.64Q75.46 38.07 74.91 38.79Q74.36 39.51 74.36 40.57Q74.36 42.12 75.49 42.92Q76.62 43.73 78.36 43.73ZM97.43 48.44L97.43 21.16L104.76 21.16L104.76 25.92L105.04 25.92Q105.79 23.38 107.55 22.08Q109.30 20.77 111.59 20.77Q112.16 20.77 112.82 20.85Q113.48 20.92 113.97 21.04L113.97 27.75Q113.44 27.59 112.50 27.47Q111.56 27.34 110.78 27.34Q109.11 27.34 107.80 28.06Q106.50 28.78 105.74 30.06Q104.99 31.34 104.99 33.01L104.99 48.44L97.43 48.44ZM129.46 48.44L129.46 21.16L136.79 21.16L136.79 25.92L137.07 25.92Q137.82 23.38 139.58 22.08Q141.34 20.77 143.63 20.77Q144.19 20.77 144.85 20.85Q145.51 20.92 146.00 21.04L146.00 27.75Q145.47 27.59 144.53 27.47Q143.59 27.34 142.81 27.34Q141.14 27.34 139.83 28.06Q138.53 28.78 137.78 30.06Q137.02 31.34 137.02 33.01L137.02 48.44L129.46 48.44ZM162.32 48.97Q158.11 48.97 155.09 47.26Q152.06 45.54 150.43 42.39Q148.79 39.24 148.79 34.93Q148.79 30.72 150.43 27.54Q152.06 24.36 155.03 22.59Q158.01 20.81 162.02 20.81Q164.72 20.81 167.05 21.67Q169.39 22.53 171.14 24.25Q172.89 25.98 173.86 28.58Q174.84 31.18 174.84 34.66L174.84 36.74L151.81 36.74L151.81 32.05L167.72 32.05Q167.72 30.42 167.01 29.15Q166.30 27.89 165.05 27.18Q163.80 26.46 162.14 26.46Q160.42 26.46 159.10 27.25Q157.78 28.04 157.03 29.36Q156.29 30.68 156.27 32.30L156.27 36.75Q156.27 38.78 157.02 40.25Q157.78 41.73 159.16 42.52Q160.55 43.32 162.45 43.32Q163.71 43.32 164.75 42.97Q165.80 42.61 166.55 41.90Q167.29 41.19 167.68 40.16L174.68 40.63Q174.15 43.15 172.51 45.02Q170.86 46.89 168.28 47.93Q165.70 48.97 162.32 48.97ZM194.44 21.16L194.44 26.85L177.61 26.85L177.61 21.16L194.44 21.16M181.46 48.44L181.46 19.19Q181.46 16.23 182.63 14.28Q183.79 12.32 185.81 11.35Q187.84 10.37 190.41 10.37Q192.15 10.37 193.60 10.64Q195.05 10.90 195.76 11.12L194.41 16.80Q193.96 16.65 193.31 16.53Q192.67 16.41 191.99 16.41Q190.32 16.41 189.67 17.18Q189.01 17.95 189.01 19.34L189.01 48.44L181.46 48.44ZM199.06 48.44L199.06 21.16L206.39 21.16L206.39 25.92L206.68 25.92Q207.42 23.38 209.18 22.08Q210.94 20.77 213.23 20.77Q213.80 20.77 214.45 20.85Q215.11 20.92 215.61 21.04L215.61 27.75Q215.07 27.59 214.13 27.47Q213.19 27.34 212.41 27.34Q210.74 27.34 209.44 28.06Q208.13 28.78 207.38 30.06Q206.62 31.34 206.62 33.01L206.62 48.44L199.06 48.44ZM231.92 48.97Q227.72 48.97 224.69 47.26Q221.66 45.54 220.03 42.39Q218.39 39.24 218.39 34.93Q218.39 30.72 220.03 27.54Q221.66 24.36 224.64 22.59Q227.61 20.81 231.62 20.81Q234.32 20.81 236.66 21.67Q238.99 22.53 240.74 24.25Q242.49 25.98 243.47 28.58Q244.44 31.18 244.44 34.66L244.44 36.74L221.41 36.74L221.41 32.05L237.32 32.05Q237.32 30.42 236.61 29.15Q235.90 27.89 234.65 27.18Q233.40 26.46 231.75 26.46Q230.02 26.46 228.70 27.25Q227.38 28.04 226.63 29.36Q225.89 30.68 225.87 32.30L225.87 36.75Q225.87 38.78 226.62 40.25Q227.38 41.73 228.76 42.52Q230.15 43.32 232.05 43.32Q233.31 43.32 234.36 42.97Q235.40 42.61 236.15 41.90Q236.90 41.19 237.29 40.16L244.28 40.63Q243.75 43.15 242.11 45.02Q240.47 46.89 237.88 47.93Q235.30 48.97 231.92 48.97ZM272.07 28.94L265.15 29.37Q264.97 28.48 264.38 27.76Q263.80 27.04 262.85 26.61Q261.90 26.17 260.58 26.17Q258.82 26.17 257.62 26.91Q256.41 27.65 256.41 28.87Q256.41 29.85 257.19 30.52Q257.97 31.20 259.87 31.61L264.81 32.60Q268.79 33.42 270.74 35.23Q272.69 37.04 272.69 39.99Q272.69 42.67 271.12 44.69Q269.55 46.72 266.82 47.84Q264.10 48.97 260.55 48.97Q255.13 48.97 251.93 46.71Q248.72 44.44 248.17 40.54L255.61 40.15Q255.95 41.80 257.24 42.66Q258.54 43.52 260.56 43.52Q262.55 43.52 263.77 42.75Q264.99 41.97 265.00 40.75Q264.99 39.72 264.13 39.05Q263.28 38.39 261.51 38.03L256.78 37.09Q252.79 36.29 250.84 34.32Q248.90 32.35 248.90 29.30Q248.90 26.67 250.33 24.77Q251.76 22.87 254.36 21.84Q256.96 20.81 260.46 20.81Q265.63 20.81 268.60 22.99Q271.57 25.18 272.07 28.94ZM285.03 32.67L285.03 48.44L277.47 48.44L277.47 12.07L284.82 12.07L284.82 25.98L285.14 25.98Q286.06 23.56 288.12 22.19Q290.18 20.81 293.29 20.81Q296.13 20.81 298.25 22.04Q300.37 23.28 301.55 25.58Q302.73 27.88 302.72 31.07L302.72 48.44L295.15 48.44L295.15 32.42Q295.17 29.90 293.88 28.50Q292.60 27.10 290.29 27.10Q288.74 27.10 287.56 27.75Q286.38 28.41 285.72 29.66Q285.05 30.91 285.03 32.67Z"/>  </g></g>
</svg>
